<?xml version="1.0" encoding="iso-8859-1"?>
<!-- Generator: Adobe Illustrator 19.0.0, SVG Export Plug-In . SVG Version: 6.00 Build 0)  -->
<svg version="1.1" id="Capa_1" xmlns="http://www.w3.org/2000/svg" xmlns:xlink="http://www.w3.org/1999/xlink" x="0px" y="0px"
	 viewBox="0 0 482.3 482.3" style="enable-background:new 0 0 482.3 482.3;" xml:space="preserve">
<g>
	<g>
		<path d="M280,40.2H150.5c-4.4,0-8,3.6-8,8c0,4.4,3.6,8,8,8H280c4.4,0,8-3.6,8-8C288,43.8,284.4,40.2,280,40.2z"/>
	</g>
</g>
<g>
	<g>
		<path d="M320,9.5c-4.4,0-8,3.6-8,8v62.3c0,4.4,3.6,8,8,8c4.4,0,8-3.6,8-8V17.5C328,13.1,324.4,9.5,320,9.5z"/>
	</g>
</g>
<g>
	<g>
		<path d="M112,9.5c-4.4,0-8,3.6-8,8v62.3c0,4.4,3.6,8,8,8s8-3.6,8-8V17.5C120,13.1,116.4,9.5,112,9.5z"/>
	</g>
</g>
<g>
	<g>
		<path d="M371.6,139.2H60c-4.4,0-8,3.6-8,8c0,4.4,3.6,8,8,8h311.6c4.5,0,8-3.6,8-8C379.6,142.8,376,139.2,371.6,139.2z"/>
	</g>
</g>
<g>
	<g>
		<path d="M298.9,201.2H60c-4.4,0-8,3.6-8,8c0,4.4,3.6,8,8,8h238.9c4.4,0,8-3.6,8-8C306.9,204.8,303.3,201.2,298.9,201.2z"/>
	</g>
</g>
<g>
	<g>
		<path d="M195,264.2H60c-4.4,0-8,3.6-8,8c0,4.4,3.6,8,8,8h135c4.4,0,8-3.6,8-8C203,267.8,199.4,264.2,195,264.2z"/>
	</g>
</g>
<g>
	<g>
		<path d="M432,250.1V48.6c-0.2-4.6-3.8-8.3-8.4-8.5h-72.7c-4.4,0-8,3.6-8,8c0,4.4,3.6,8,8,8H416v184c-17.7-9.2-37.3-14-57.2-14
			c-68,0-123.5,55.2-123.5,123.3c0,11.4,1.5,22.8,4.6,33.8H16v-327h54.4c4.4,0,8-3.6,8-8s-3.6-8-8-8H8c-4.4,0-8,4-8,8.5v342.8
			c0,4.3,3.6,7.8,7.9,7.7c0.1,0,0.1,0,0.2,0h237.8c19.2,43,62.5,73.6,112.8,73.6c68,0,123.6-55.3,123.6-123.3
			C482.2,308.7,462,272.6,432,250.1z M358.6,456.9c-59.3,0-107.4-48.1-107.4-107.4s48-107.3,107.3-107.4
			c59.3,0,107.4,48.1,107.4,107.4S417.9,456.8,358.6,456.9z"/>
	</g>
</g>
<g>
	<g>
		<path d="M434.4,276.1c-3.1-3.3-8.2-3.3-11.3-0.1l-31.8,31.6c-4.7-4.1-10.8-6.3-17-6.3c-7,0-13.7,2.9-18.6,7.9l-7.2,7.3v0.1
			L314,350.8l-20.3,20.4c-3.1,3.1-3.1,8.2,0,11.3l11.4,11.4l-6.9,6.9l-12.5-12.5c-3.1-3.1-8.2-3.1-11.3,0c-3.1,3.1-3.1,8.2,0,11.3
			l36.4,36.4c3.1,3.1,8.2,3.1,11.3-0.1c3.1-3.1,3.1-8.1,0-11.2l-12.6-12.5l6.9-6.9l12.3,12.4c1.5,1.5,3.5,2.5,5.6,2.5
			c2.1-0.1,4.2-1,5.7-2.5l61.9-62.2c9.9-10,10.3-26,0.8-36.4l31.7-31.7C437.5,284.3,437.5,279.2,434.4,276.1z M390.6,344.1
			l-56.3,56.5L310.6,377l9.1-9.1l6.7,6.7c3.1,3.1,8.2,3.1,11.3,0c3.1-3.1,3.1-8.2,0-11.3l-6.7-6.7l5.8-5.8l15.3,15.5
			c3.1,3.1,8.2,3.2,11.3,0.1c3.1-3.1,3.2-8.2,0.1-11.3l-15.4-15.5l5.9-5.9l6.7,6.7c3.1,3.1,8.2,3.2,11.3,0.1
			c3.1-3.1,3.2-8.2,0.1-11.3c0,0,0,0-0.1-0.1l-6.7-6.7l1.6-1.7c1.9-2,4.6-3.2,7.3-3.2c2.8,0.1,5.5,1.2,7.4,3.2l8.7,8.8
			C394.6,333.3,394.7,339.9,390.6,344.1z"/>
	</g>
</g>
<g>
</g>
<g>
</g>
<g>
</g>
<g>
</g>
<g>
</g>
<g>
</g>
<g>
</g>
<g>
</g>
<g>
</g>
<g>
</g>
<g>
</g>
<g>
</g>
<g>
</g>
<g>
</g>
<g>
</g>
</svg>
