<?xml version="1.0" standalone="no"?><!DOCTYPE svg PUBLIC "-//W3C//DTD SVG 1.1//EN" "http://www.w3.org/Graphics/SVG/1.1/DTD/svg11.dtd"><svg t="1513564133587" class="icon" style="" viewBox="0 0 1024 1024" version="1.1" xmlns="http://www.w3.org/2000/svg" p-id="1121" xmlns:xlink="http://www.w3.org/1999/xlink" width="1000" height="1000"><defs><style type="text/css"></style></defs><path d="M977.454538 139.636364 46.545462 139.636364 46.545462 93.09091 977.454538 93.09091 977.454538 139.636364ZM930.909103 744.727283 93.090897 744.727283 93.090897 186.181818 930.909103 186.181818 930.909103 744.727283ZM977.454538 46.545454 558.545462 46.545454C558.545462 20.852364 537.693103 0 512 0 486.306897 0 465.454538 20.852364 465.454538 46.545454L46.545462 46.545454C20.852359 46.545454 0 67.397818 0 93.09091L0 139.636364C0 165.352728 20.852359 186.181818 46.545462 186.181818L46.545462 744.727283C46.545462 770.443641 67.397821 791.272717 93.090897 791.272717L488.727283 791.272717 488.727283 851.456 355.909821 984.273462C351.697462 988.509103 349.090897 994.327283 349.090897 1000.727283 349.090897 1013.597103 359.517103 1024 372.363641 1024 378.786897 1024 384.605103 1021.416717 388.817462 1017.181103L512 893.998538 635.182538 1017.181103C639.394897 1021.416717 645.213103 1024 651.636359 1024 664.482897 1024 674.909103 1013.597103 674.909103 1000.727283 674.909103 994.327283 672.302538 988.509103 668.090179 984.273462L535.272717 851.456 535.272717 791.272717 930.909103 791.272717C956.602179 791.272717 977.454538 770.443641 977.454538 744.727283L977.454538 186.181818C1003.147641 186.181818 1024 165.352728 1024 139.636364L1024 93.09091C1024 67.397818 1003.147641 46.545454 977.454538 46.545454L977.454538 46.545454ZM581.818179 605.090897 814.545462 605.090897C827.392 605.090897 837.818179 594.688 837.818179 581.818179 837.818179 568.971641 827.392 558.545462 814.545462 558.545462L581.818179 558.545462C568.971641 558.545462 558.545462 568.971641 558.545462 581.818179 558.545462 594.688 568.971641 605.090897 581.818179 605.090897L581.818179 605.090897ZM232.727283 325.818182 418.909103 325.818182 418.909103 558.545462 232.727283 558.545462 232.727283 325.818182ZM232.727283 605.090897 418.909103 605.090897C444.602179 605.090897 465.454538 584.261821 465.454538 558.545462L465.454538 325.818182C465.454538 300.12509 444.602179 279.272728 418.909103 279.272728L232.727283 279.272728C207.034179 279.272728 186.181821 300.12509 186.181821 325.818182L186.181821 558.545462C186.181821 584.261821 207.034179 605.090897 232.727283 605.090897L232.727283 605.090897ZM581.818179 512 674.909103 512C687.755641 512 698.181821 501.597103 698.181821 488.727283 698.181821 475.880717 687.755641 465.454538 674.909103 465.454538L581.818179 465.454538C568.971641 465.454538 558.545462 475.880717 558.545462 488.727283 558.545462 501.597103 568.971641 512 581.818179 512L581.818179 512ZM581.818179 325.818182 721.454538 325.818182C734.301103 325.818182 744.727283 315.415272 744.727283 302.545454 744.727283 289.69891 734.301103 279.272728 721.454538 279.272728L581.818179 279.272728C568.971641 279.272728 558.545462 289.69891 558.545462 302.545454 558.545462 315.415272 568.971641 325.818182 581.818179 325.818182L581.818179 325.818182ZM581.818179 418.90909 814.545462 418.90909C827.392 418.90909 837.818179 408.506182 837.818179 395.636364 837.818179 382.789818 827.392 372.363636 814.545462 372.363636L581.818179 372.363636C568.971641 372.363636 558.545462 382.789818 558.545462 395.636364 558.545462 408.506182 568.971641 418.90909 581.818179 418.90909L581.818179 418.90909Z" p-id="1122" fill="#20a6a5"></path></svg>