<?xml version="1.0" standalone="no"?><!DOCTYPE svg PUBLIC "-//W3C//DTD SVG 1.1//EN" "http://www.w3.org/Graphics/SVG/1.1/DTD/svg11.dtd"><svg t="1513235277208" class="icon" style="" viewBox="0 0 1024 1024" version="1.1" xmlns="http://www.w3.org/2000/svg" p-id="11405" xmlns:xlink="http://www.w3.org/1999/xlink" width="1000" height="1000"><defs><style type="text/css"></style></defs><path d="M857.6 249.4h-43.1v-93.6c0-50.6-41.2-91.8-91.8-91.8H166.3c-50.6 0-91.8 41.2-91.8 91.8v712.4c0 50.6 41.2 91.8 91.8 91.8h691.3c20.4 0 40.6-7 56.7-19.7 15.4-12.1 26.7-29 31.8-47.7 1.9-0.1 3.3-1.5 3.3-3.4v-548c0-50.6-41.2-91.8-91.8-91.8z m-734.3-93.6c0-23.7 19.3-43 43-43h556.4c23.7 0 43 19.3 43 43v625.3c0 1.9 1.5 3.4 3.4 3.4H811c1.9 0 3.4-1.5 3.4-3.4V298.2h43.1c23.7 0 43 19.3 43 43v527c0 23.7-19.3 43-43 43H166.3c-23.7 0-43-19.3-43-43V155.8z" p-id="11406"></path><path d="M226.3 497.1v4.5c0 12.2 9.9 22 22 22h388.1c12.2 0 22-9.9 22-22v-4.5c0-12.2-9.9-22-22-22h-388c-12.2 0-22.1 9.9-22.1 22zM636.4 607.8h-388c-12.2 0-22 9.9-22 22v4.5c0 12.2 9.9 22 22 22h388.1c12.2 0 22-9.9 22-22v-4.5c0-12.1-9.9-22-22.1-22zM636.4 732.2h-388c-12.2 0-22 9.9-22 22v4.5c0 12.2 9.9 22 22 22h388.1c12.2 0 22-9.9 22-22v-4.5c0-12.1-9.9-22-22.1-22zM405.7 372.5l-4.6-0.8c-1-1.7-4.1-9.4-4.9-39.2 0-28-6.8-47.4-20.2-57.9 18.7-11.2 27.9-29 27.2-52.8 0-20.6-6.8-36.3-20.2-46.8-13.2-10.3-32.8-15.5-58.5-15.5H233v227.2h34v-97.8h57.7c21.6-0.7 32.8 6.2 35.4 21.5 0.7 3.8 1.5 12.6 2.3 24.8 1.6 25.5 4.1 40.7 7.6 48l1.8 3.5h33.7V378l0.2-5.5z m-35.4-149.6c-0.6 23.6-15.5 34.9-47 35.6h-56.4V190h57.5c31.3 0 45.9 10.5 45.9 32.9z" p-id="11407"></path></svg>