<?xml version="1.0" standalone="no"?><!DOCTYPE svg PUBLIC "-//W3C//DTD SVG 1.1//EN" "http://www.w3.org/Graphics/SVG/1.1/DTD/svg11.dtd"><svg t="1513564032639" class="icon" style="" viewBox="0 0 1024 1024" version="1.1" xmlns="http://www.w3.org/2000/svg" p-id="899" xmlns:xlink="http://www.w3.org/1999/xlink" width="1000" height="1000"><defs><style type="text/css"></style></defs><path d="M715.232193 47.415916 158.903591 47.415916c-43.663452 0-79.069847 35.406394-79.069847 79.069847l0 737.070059c0 43.664475 35.406394 79.07087 79.069847 79.07087l737.070059 0c43.664475 0 79.07087-35.406394 79.07087-79.07087L975.04452 307.215964 715.232193 47.415916zM929.854295 325.941444l0 1.760087L753.356488 327.70153c-31.143301 0-56.474222-25.342178-56.474222-56.482409L696.882266 92.955088 929.854295 325.941444zM895.972627 897.448746 158.903591 897.448746c-18.688641 0-33.881668-15.20326-33.881668-33.892925L125.021923 126.485763c0-18.689664 15.19405-33.893948 33.881668-33.893948l492.426199 0 0.36532 0 0 178.627307c0 56.05569 45.61285 101.669564 101.661378 101.669564l176.497806 0 0 490.667136C929.854295 882.245486 914.661268 897.448746 895.972627 897.448746z" p-id="900" fill="#20a6a5"></path><path d="M273.050328 372.889709l297.851689 0c12.487406 0 22.600741-10.124592 22.600741-22.588461 0-12.486382-10.113335-22.599717-22.600741-22.599717L273.050328 327.70153c-12.475126 0-22.588461 10.113335-22.588461 22.599717C250.461867 362.765117 260.574179 372.889709 273.050328 372.889709z" p-id="901" fill="#20a6a5"></path><path d="M773.3918 486.208591 273.050328 486.208591c-12.475126 0-22.588461 10.112312-22.588461 22.587438 0 12.487406 10.113335 22.599717 22.588461 22.599717l500.341472 0c12.488429 0 22.601764-10.113335 22.601764-22.598694C795.993564 496.320902 785.880229 486.208591 773.3918 486.208591z" p-id="902" fill="#20a6a5"></path><path d="M773.3918 644.713604 273.050328 644.713604c-12.475126 0.001023-22.588461 10.126638-22.588461 22.600741 0 12.476149 10.113335 22.587438 22.588461 22.587438l500.341472 0c12.488429 0 22.601764-10.111289 22.601764-22.587438C795.993564 654.840242 785.880229 644.713604 773.3918 644.713604z" p-id="903" fill="#20a6a5"></path></svg>