<?xml version="1.0" standalone="no"?><!DOCTYPE svg PUBLIC "-//W3C//DTD SVG 1.1//EN" "http://www.w3.org/Graphics/SVG/1.1/DTD/svg11.dtd"><svg t="1513235793222" class="icon" style="" viewBox="0 0 1024 1024" version="1.1" xmlns="http://www.w3.org/2000/svg" p-id="1904" xmlns:xlink="http://www.w3.org/1999/xlink" width="1000" height="1000"><defs><style type="text/css"></style></defs><path d="M554.080323 309.101899l-84.181333 0c-18.995717 0-34.450101-15.339313-34.450101-34.151434l0-113.803636c0-18.827636 15.454384-34.156606 34.450101-34.156606l84.181333 0c18.994424 0 34.450101 15.32897 34.450101 34.156606l0 113.803636C588.530424 293.772929 573.090263 309.101899 554.080323 309.101899M469.89899 157.344323c-2.111354 0-3.833535 1.706667-3.833535 3.802505l0 113.803636c0 2.080323 1.722182 3.802505 3.833535 3.802505l84.181333 0c2.126869 0 3.833535-1.722182 3.833535-3.802505l0-113.803636c0-2.090667-1.706667-3.802505-3.833535-3.802505L469.89899 157.344323 469.89899 157.344323 469.89899 157.344323zM301.505293 320.738263c-28.025535 0-49.727354-28.586667-49.727354-53.136808L251.777939 134.672808c0-25.693091 18.443636-53.192404 45.918384-53.192404 0.802909 0 1.596768 0.055596 2.413899 0.17196 1.657535 0.252121 165.975919 33.307152 165.975919 72.014869l0 95.01996c0 38.202182-160.536566 71.590788-162.142384 71.868768C303.125333 320.667152 302.308202 320.738263 301.505293 320.738263M306.251636 123.898828c-7.630869 0.804202-13.277091 12.329374-13.277091 19.878788l0 115.904646c0 7.227475 7.985131 19.070707 16.752485 19.838707 38.348283-6.061253 110.444606-29.328808 124.560808-39.90497l0-75.570424C419.681616 153.434505 345.666586 130.071273 306.251636 123.898828M722.510222 320.738263c-0.818424 0-1.621333-0.086626-2.424242-0.197818-1.621333-0.262465-162.172121-33.661414-162.172121-71.933414L557.913859 153.651717c0-38.711596 164.292525-71.752404 166.005657-72.014869 0.768-0.116364 1.570909-0.182303 2.37899-0.182303 27.485091 0 45.924848 27.510949 45.924848 53.218263l0 132.902788C772.227232 292.146424 750.509899 320.738263 722.510222 320.738263M589.726384 239.551354c14.116202 10.605899 86.242263 33.894141 124.545293 39.969616 8.777697-0.788687 16.747313-12.616404 16.747313-19.854222l0-115.889131c0-7.564929-5.630707-19.074586-13.26804-19.878788-39.413657 6.172444-113.419636 29.535677-128.029737 40.146747l-1.207596 80.449939L589.726384 239.551354 589.726384 239.551354zM955.929212 944.455111 68.055273 944.455111c-8.449293 0-15.303111-6.813737-15.303111-15.181576L52.752162 305.570909c0-6.272 3.889131-11.904 9.782303-14.161455l98.940121-37.98497c6.843475-2.59103 14.620444-0.040081 18.499232 6.125899L513.151354 789.176889l333.540848-534.261657c2.283313-3.737859 6.075475-6.328889 10.39903-7.107232 4.337778-0.766707 8.793212 0.354263 12.282828 3.070707l96.100848 47.652202c3.646061 2.874182 5.772929 7.246869 5.772929 11.87297l0 618.854141C971.237495 937.625859 964.423758 944.455111 955.929212 944.455111M96.348444 900.792889l831.54101-2.066101 2.353131-566.494384-60.90602-30.851879-314.16501 506.15596c-21.109657 21.130343-21.109657 22.423273-36.105051 25.028525-5.010101 0.871434-22.074182 7.939879-40.954828-20.136081L154.257455 301.273212l-57.90901 20.615758L96.348444 900.792889l12.929293 0L96.348444 900.792889zM870.317899 576.616727l-80.757657 0c-8.923798 0-16.140929-6.343111-16.140929-14.145939 0-7.818343 7.217131-14.145939 16.140929-14.145939l80.757657 0c8.949657 0 16.146101 6.337939 16.146101 14.145939C886.464 570.272323 879.267556 576.616727 870.317899 576.616727M514.78303 525.226667c-40.101495 0-72.737616-32.382707-72.737616-72.140283 0-39.773091 32.636121-72.141576 72.737616-72.141576 40.115717 0 72.732444 32.368485 72.732444 72.141576C587.514182 492.864646 554.898747 525.226667 514.78303 525.226667M514.78303 411.298909c-23.237818 0-42.130101 18.742303-42.130101 41.787475 0 23.050343 18.893576 41.787475 42.130101 41.787475s42.115879-18.737131 42.115879-41.787475C556.898909 430.041212 538.019556 411.298909 514.78303 411.298909" p-id="1905"></path></svg>