<?xml version="1.0" standalone="no"?><!DOCTYPE svg PUBLIC "-//W3C//DTD SVG 1.1//EN" "http://www.w3.org/Graphics/SVG/1.1/DTD/svg11.dtd"><svg t="1513654273542" class="icon" style="" viewBox="0 0 1024 1024" version="1.1" xmlns="http://www.w3.org/2000/svg" p-id="1879" xmlns:xlink="http://www.w3.org/1999/xlink" width="1000" height="1000"><defs><style type="text/css"></style></defs><path d="M512 92.672c-220.672 0-399.36 175.104-399.36 390.656 0 197.632 150.016 360.96 344.576 387.072-3.072 18.944-9.216 60.416-6.656 60.416 2.048 0 107.008-44.032 176.64-73.728 164.352-48.128 283.648-197.632 283.648-374.272 0.512-215.04-178.176-390.144-398.848-390.144zM346.112 400.384c0-18.944 15.36-34.816 34.816-34.816s34.816 15.36 34.816 34.816v49.152c0 9.216-3.584 18.432-10.24 24.576-6.656 6.656-15.36 9.728-24.064 9.728-18.944 0-34.816-15.36-34.816-34.816v-48.64z m164.864 281.6c-75.264 0-137.216-31.232-158.72-70.144l26.112-11.264c19.456 30.208 71.68 56.832 133.632 56.832 62.976 0 114.688-26.624 133.12-55.808 8.704 4.096 14.336 5.632 26.112 11.264-21.504 38.4-86.016 69.12-160.256 69.12z m166.912-232.448c0 18.944-15.36 34.816-34.816 34.816-18.944 0-34.816-15.36-34.816-34.816v-49.152c0-18.944 15.36-34.816 34.816-34.816 18.944 0 34.816 15.36 34.816 34.816v49.152z" p-id="1880" fill="#20a6a5"></path></svg>