<?xml version="1.0" standalone="no"?><!DOCTYPE svg PUBLIC "-//W3C//DTD SVG 1.1//EN" "http://www.w3.org/Graphics/SVG/1.1/DTD/svg11.dtd"><svg t="1513234357375" class="icon" style="" viewBox="0 0 1024 1024" version="1.1" xmlns="http://www.w3.org/2000/svg" p-id="1020" xmlns:xlink="http://www.w3.org/1999/xlink" width="1000" height="1000"><defs><style type="text/css"></style></defs><path d="M724.019094 963.50723a222.361489 222.361489 0 1 0-224.486288-222.335889 223.436688 223.436688 0 0 0 224.486288 222.335889z m0 49.407976A271.769464 271.769464 0 1 1 998.399757 741.171341a273.075063 273.075063 0 0 1-274.380663 271.743865zM75.494618 49.408487h798.182001v370.585415h49.894375V24.5253A24.883188 24.883188 0 0 0 898.559807 0.000512H50.534631A24.959988 24.959988 0 0 0 25.600243 24.7557v938.70033a24.883188 24.883188 0 0 0 24.934388 24.755188h349.209425v-49.407975H75.494618V49.408487z m149.657525 247.065477h448.972576v49.407975H225.152143v-49.407975z m0 148.223926h249.446276V494.080265H225.152143v-49.407975z m0 148.223926h149.657526v49.407975H225.152143v-49.407975z m523.826939 0a24.934388 24.934388 0 0 0-49.894376 0v148.223925a24.652788 24.652788 0 0 0 12.108794 21.17119l124.723138 74.239963a25.087987 25.087987 0 0 0 33.433583-8.934396 24.575988 24.575988 0 0 0-7.679996-33.407983l-112.639944-66.943967v-134.348732z" p-id="1021"></path></svg>