<?xml version="1.0" encoding="utf-8"?>
<!-- Generator: Adobe Illustrator 19.0.0, SVG Export Plug-In . SVG Version: 6.00 Build 0)  -->
<svg version="1.1" id="图层_1" xmlns="http://www.w3.org/2000/svg" xmlns:xlink="http://www.w3.org/1999/xlink" x="0px" y="0px"
	 viewBox="0 0 51.8 30.1" style="enable-background:new 0 0 51.8 30.1;" xml:space="preserve">
<path d="M51.2,5.4L27.1,29.6c-0.4,0.4-0.7,0.5-1.3,0.5c-0.4,0-0.7-0.2-1.1-0.5L0.5,5.4C0.2,5.1,0,4.7,0,4.4c0-0.5,0.2-0.9,0.5-1.3
	l2.5-2.5C3.5,0.2,3.8,0,4.2,0c0.5,0,0.9,0.2,1.3,0.5L26,20.9L46.3,0.5C46.7,0.2,47,0,47.4,0c0.5,0,0.9,0.2,1.3,0.5l2.5,2.5
	c0.4,0.4,0.5,0.7,0.5,1.3C51.8,4.7,51.6,5.1,51.2,5.4z"/>
</svg>
