<?xml version="1.0" standalone="no"?><!DOCTYPE svg PUBLIC "-//W3C//DTD SVG 1.1//EN" "http://www.w3.org/Graphics/SVG/1.1/DTD/svg11.dtd"><svg t="1505038525861" class="icon" style="" viewBox="0 0 1027 1024" version="1.1" xmlns="http://www.w3.org/2000/svg" p-id="58205" xmlns:xlink="http://www.w3.org/1999/xlink" width="200.5859375" height="200"><defs><style type="text/css"></style></defs><path d="M514.688 0c-282.752 0-512 225.472-512 503.68 0 150.08 67.136 284.608 173.056 376.832l-0.064-27.136c0.512-19.904 8.384-57.024 22.784-75.392 49.92-64 114.24-97.28 221.824-108.352a43.2 43.2 0 0 0 38.272-42.496c0-14.976-48.832-59.456-48.832-59.456-51.136-51.456-77.568-135.616-77.568-200.32 0-99.84 81.664-180.928 182.528-180.928 100.8 0 182.528 81.088 182.528 180.928 0 64.384-27.072 148.032-77.76 199.424 0.384 0.256-48.64 45.312-48.64 60.352 0 20.608 14.976 37.76 34.688 41.728 109.888 10.752 174.848 44.352 225.28 109.12 14.592 18.368 22.336 55.488 22.848 75.392a1808 1808 0 0 0-0.128 27.136c105.984-92.224 173.056-226.752 173.056-376.832C1026.624 225.472 797.44 0 514.688 0z" fill="#E6E6E6" p-id="58206"></path></svg>