<?xml version="1.0" standalone="no"?><!DOCTYPE svg PUBLIC "-//W3C//DTD SVG 1.1//EN" "http://www.w3.org/Graphics/SVG/1.1/DTD/svg11.dtd"><svg t="1505059439625" class="icon" style="" viewBox="0 0 1024 1024" version="1.1" xmlns="http://www.w3.org/2000/svg" p-id="80913" xmlns:xlink="http://www.w3.org/1999/xlink" width="200" height="200"><defs><style type="text/css"></style></defs><path d="M413.538462 689.104738a240.246154 120.493292 90 1 0 240.986584 0 240.246154 120.493292 90 1 0-240.986584 0Z" fill="#F0F0F0" p-id="80914"></path><path d="M513.055508 558.190277h30.74363a19.692308 19.692308 0 0 1 19.692308 19.692308v12.059569a19.692308 19.692308 0 0 1-19.692308 19.692308h-30.74363a19.692308 19.692308 0 0 1-19.692308-19.692308v-12.059569a19.692308 19.692308 0 0 1 19.692308-19.692308z" fill="#C1C1C1" p-id="80915"></path><path d="M519.632738 582.805662s-70.561477 214.583138-78.76923 252.061538c10.712615 34.768738 92.719262 142.312369 92.719261 142.312369s111.025231-118.350769 90.127754-173.662523c-20.984123-55.571692-80.447015-220.711385-80.447015-220.711384h-23.63077z" fill="#C1C1C1" p-id="80916"></path><path d="M530.313846 551.297969l-73.696492 94.523077-97.193354-47.261538 43.976862-101.509908L533.582769 537.915077l100.1472-61.298215 60.085169 122.588553-93.585723 46.615631-69.915569-94.523077z" fill="#DADADA" p-id="80917"></path><path d="M886.728862 976.651815H141.319877c-5.718646-14.619569-8.333785-85.031385-7.427939-105.692553C138.074585 775.175877 217.812677 567.138462 414.011077 527.698708c0 0 6.2464 315.667692 120.642954 392.861538 0 0 117.586708-78.942523 110.592-397.540431 0 0 256.827077 63.417108 244.357907 354.68997-0.504123 11.791754-1.457231 81.321354-2.875076 98.94203z" fill="#FAFAFA" p-id="80918"></path><path d="M724.432738 779.728738a39.384615 39.384615 0 1 1 0-78.76923 39.384615 39.384615 0 0 1 0 78.76923z m0-55.138461a15.753846 15.753846 0 1 0-0.007876 31.499815 15.753846 15.753846 0 0 0 0.007876-31.499815z" fill="#AAAAAA" p-id="80919"></path><path d="M724.432738 740.304738m-15.753846 0a15.753846 15.753846 0 1 0 31.507693 0 15.753846 15.753846 0 1 0-31.507693 0Z" fill="#DADADA" p-id="80920"></path><path d="M749.339569 415.042954c-3.024738 21.535508-22.764308 36.517415-44.079261 33.461169-0.110277-0.015754-0.2048-0.063015-0.315077-0.078769-26.119877 60.872862-74.917415 109.914585-164.745846 109.914584-106.062769 0-168.069908-51.239385-203.988677-104.77883-4.726154 2.055877-9.917046 3.213785-15.391508 3.213784-21.535508 0-38.990769-17.636431-38.990769-39.384615a39.290092 39.290092 0 0 1 19.771077-34.075569c-9.995815-28.900431-12.736985-49.711262-12.736985-49.711262C303.064615-8.900923 728.749292 183.902523 731.214769 221.231262c1.079138 16.313108 7.152246 82.7392-4.883692 152.363323a39.353108 39.353108 0 0 1 23.008492 41.448369z" fill="#FAFAFA" p-id="80921"></path><path d="M351.657354 251.974892c0 42.795323-0.252062 83.983754-40.637046 130.363077-10.901662 12.524308 10.870154 74.980431 30.042584 81.723077-41.282954-23.433846-108.701538-132.245662-70.096738-253.046154C327.034092 35.556431 517.190892 46.875569 531.337846 47.568738c14.146954 0.685292 219.372308 16.029538 232.014769 220.16 5.088492 82.116923-47.608123 164.769477-69.915569 173.292308 0 0 13.564062-28.821662 15.541169-63.015384 3.064123-53.121969-3.536738-83.377231-23.307815-126.03077 0 0-52.216123 31.507692-163.1232 31.507693s-170.889846-31.507692-170.889846-31.507693z" fill="#AAAAAA" p-id="80922"></path><path d="M403.2512 752.647877c-11.035569 0-19.983754-9.200246-19.983754-20.550892s8.948185-20.558769 19.983754-20.55877 19.983754 9.208123 19.983754 20.55877c0 11.350646-8.948185 20.550892-19.983754 20.550892z m-109.969723 0c-11.106462 0-20.101908-9.200246-20.101908-20.550892s8.995446-20.558769 20.101908-20.55877c11.106462 0 20.109785 9.208123 20.109785 20.55877 0 11.350646-9.003323 20.550892-20.109785 20.550892z" fill="#A0A0A0" p-id="80923"></path></svg>